<?xml version="1.0" encoding="UTF-8"?>
<svg id="Layer_2" data-name="Layer 2" xmlns="http://www.w3.org/2000/svg" viewBox="0 0 402.9635 434.2123">
  <defs>
    <style>
      .cls-1 {
        fill: #fff;
      }
    </style>
  </defs>
  <g id="Layer_1-2" data-name="Layer 1">
    <g id="pBeTgW.tif">
      <g>
        <g>
          <path class="cls-1" d="M49.8137,230.4748l-.1603-5.0285c-.1365-4.2827-3.9288-6.2393-8.4415-5.5286.8738-1.4236,2.9484-2.6863,4.3375-2.9435,2.1197-.3925,4.4325.2986,5.5507,1.9433,2.5369,3.7312,1.1809,8.1788-1.2864,11.5573Z"/>
          <g>
            <path class="cls-1" d="M353.2239,225.299l-.0822,5.0098c-2.1415-2.6705-3.5898-6.5576-1.9815-10.1992.9023-2.0429,3.0531-3.3575,5.3884-3.2457,1.6532.0791,3.8695,1.3323,5.1481,2.8941-2.3487.1415-4.5435.1193-5.9815,1.0686-1.1497.759-2.4649,2.867-2.4912,4.4723Z"/>
            <path class="cls-1" d="M339.8105,161.9021c5.331,8.2976,11.212,15.0671,18.0373,21.5781l10.7289,10.2347c14.4559,13.7902,23.6601,24.002,34.3868,41.1189-3.2491,6.9806-6.7901,13.0546-11.0348,19.1922l-10.8345,15.6661c-4.3594,6.3035-7.888,12.8475-11.0648,19.9863-6.8266-9.5949-13.441-18.1201-21.0197-26.441l-24.7183-27.139c-3.9987-4.3903-7.8241-8.6759-10.7605-13.7947l-3.9012-6.8007-63.7903,111.5433-8.5449.0298,13.1866-22.7717c-14.8014,10.1644-27.0269,15.8901-44.5065,17.1295l.0269,5.7307-8.9637-.0015.0043-5.7608c-17.2168-.9526-32.3888-7.621-45.6706-19.0596l14.2771,24.6978c-2.8989.1675-5.4022.1712-8.5057.028l-63.8835-111.7271c-3.7129,7.8872-9.509,15.2094-15.2398,21.5014l-24.7313,27.1525c-7.3468,8.066-13.7598,16.2833-20.3185,25.6829-3.3792-7.524-7.2437-14.4249-11.8636-21.0909l-9.6315-13.8972c-4.4205-6.3783-8.285-12.8673-11.4748-19.8148,9.6328-15.7295,21.3984-29.271,34.9055-41.6614,10.671-9.7888,20.0659-18.9261,28.2653-31.1973-1.5427-1.4545-4.4897.5992-6.4796-1.3551-.6044-.5936-.6966-2.625-.2233-3.4487,3.0158-5.2483,10.2519-6.258,11.7313-3.4121,1.321,2.5413-2.083,4.3792-1.406,5.6566l64.3085,108.8491c-2.5963-17.2434-.1876-33.1839,7.2044-48.2686,4.3498-8.8766,10.1746-16.2944,18.2571-22.1148,12.5244-9.0191,27.1706-14.0105,42.7536-14.6539.1198-3.6644.5267-7.1972.0657-10.7447l-.6452-4.9644-1.0518.9247-.2325-1.5971c-.0615-.4225-1.1217-.4679-1.8609-.6701l-.6712-3.0891-1.7862-.0148-.2143-7.1516c-.0072-.2396-.123-1.0603-.1723-1.2988-.0639-.3089-.583-.2588-1.4453-.374l1.0914-4.3308-1.9588.3827c-.3503.0684-.213-1.3534-.1304-1.7408,1.1143-5.2284,3.8054-10.0787,6.4311-15.1427-3.3045-.0404-5.2374,10.6498-8.3283,11.2296l1.1086-5.0566-1.986.7641,1.0625-5.4931-1.8347-.1253c-.4511-.0308-.1582-1.7424-.0546-2.1823l.3912-1.6603c.0719-.3052-.6693-.1544-1.5488-.2055l.6009-3.2957-2.9908-.5838c-.0186.3287.2521,1.7341.518,2.4732l1.3759,3.8243-1.3608.0242c-.9105.0162-.1641,1.8206-.6239,1.9102l-1.3263.2585c-.2283,1.2626,5.2417,7.6588-.1965,5.55l-.0689,3.1521-2.8689-1.8194,3.0438,8.6275-3.9201-1.5474,1.4128,8.1206-1.0279.3203c-.2158.0672-.1536.8127-.189,1.1831l-.3043,3.1807-2.2476-2.3312.9983,4.8455-1.9128-.1342,1.2917,5.1885-2.2622-.7554-1.1635,3.3823-1.0192-4.0569-1.8113-.0794c-1.1295-.0495-.1441-3.6162-.7838-4.0295l-2.0113-1.2997c.7935-2.0797,5.7665-6.7128,4.9809-7.6256-1.4635-1.7003-1.7865,1.7728-4.235,3.2818-.5911-2.0027.4908-3.2901,1.1783-5.2989l-3.3154,2.3916.5233-3.1555c-1.2615-6.3236,2.9185-5.9263,7.2969-10.445-6.5798-1.268-6.1467,5.6279-9.1766,4.6914,1.4037-7.5124,10.8116-6.2471,9.1847-10.1847-5.5184.3498-6.4741,7.2951-9.2469,5.5737.5682-1.9114,1.7604-3.2644,3.1971-4.7974l-2.1639-.7069c2.7241-5.7221,6.616-5.915,10.1507-7.8799.3324-.1848-.1859-1.4899-.5523-1.5604-4.2338-.8147-3.2497,4.8857-7.9756,3.7327l.9975-1.8686c.1591-.2981-1.2578-.3487-1.6683-.5046,1.8069-4.6509,6.597-7.8997,11.2942-9.287.4906-.1449.9633-1.3831.8074-1.7503-4.5174.2565-8.4624,5.1688-10.0409,5.34-2.4658.2675,2.4941-4.5852,3.2354-4.7706-.6337-1.4206.2301-2.9534,1.4428-4.2025l-1.7156-.7083c-.301-.1243.0917-1.3072.3036-1.5708,2.9596-3.6828,7.7783-5.1753,12.2023-7.1784-1.8569-2.3556-9.3769,3.7251-9.4204,2.8054l-.0741-1.5684-2.6117.3542c.1105-1.9728.281-2.8464-.3332-4.3106l-2.9177,6.6476-.6823-2.5879c.3297-.1304-.4524.1792-.6475.2563-.5944,2.1822-.9318,3.5664-1.9532,5.8972l-1.0052-6.0142-2.1344,7.9003-2.0319-5.1372-1.2933,5.9279c-.1634.7487-.947,1.9191-1.4456,2.3372l-1.0375-5.6702c-1.3556,2.998-1.0965,4.8831-2.0792,8.2565l-1.9665-5.7766c-1.1001.2197-2.3821,10.8646-3.666,8.0374l-.7252-1.5968-1.8439,5.2547c-.0703.2004-.75.7628-.9381.8825-.2529.1609-.8903-.4398-.9915-.7578l-1.1191-3.5166-1.6798,7.1028c-.8646-.8742-1.1205-1.6875-1.6466-3.1543l-1.8796,8.8527-1.7387-3.4712-1.5979,7.4783-1.7767-3.9583-1.5415,6.2314-1.8243-1.8021-1.4389,3.69-1.4834-1.6578-1.6424,5.0814c-2.9307-2.2032-.706-4.7229.1522-7.5781l-3.5476.7318c-1.4325-7.1108,8.5157-6.8767,10.055-9.9831l-8.6065,2.3837c1.0556-3.2837,6.5319-3.9291,9.2212-5.7334.2272-.1524-.0472-1.0475-.3206-1.04-.2736.0075-1.0692.1688-1.3321.3015l-4.1628,2.1024c-.1906.0962-1.0833-.1398-1.2847-.2062-.302-.0996-.2302-1.1352.074-1.2276l5.1189-1.5553c2.2019-.669,3.975-1.8539,5.5049-3.5506.6177-.5943.7378-.7266-.0557-.6075l-9.8822,3.4096c.2059-2.7698,3.0609-3.2186,5.095-4.0633l3.6209-1.5036-6.19-.1842c1.3804-1.8255,2.1248-3.042,3.2881-4.1362,3.3642-3.1641,12.7604-1.6276,17.2097-3.6753l-13.3679-.6274c3.395-3.6343,10.4455-.554,15.4254-3.0079l-10.3221-1.1155c2.2931-1.2963,3.9616-1.6546,6.4001-2.4818l-3.5257-1.103c4.1241-1.1336,7.7405-1.0135,12.6104-1.9829l-10.0246-1.1454c5.1854-1.7669,12.7621-1.0292,18.0113-1.4078.4741-3.6735-10.8052-.1589-14.2055-1.5085,1.9724-1.3912,4.065-1.3991,6.4035-1.6709l1.2202-.1418c.2817-.0327.1022-.5111-.0404-1.4591,1.2394-.5921,3.2458-1.0484,4.6854-1.2149l-2.2679-2.0041,7.0222-1.3793c1.1878-.2333,1.7819-2.3771,4.137-1.3579l-.4285-2.8063c1.1282-.7592,1.9784-1.3078,2.237-3.1258l-4.9844,1.5429,1.5635-3.7656c-2.316,1.2744-3.4279,1.9248-5.9298,2.9417l1.2158-3.8194-4.7469,3.2727.5915-4.6095c-3.6691,1.6377-4.3495,4.9484-7.6856,6.2008l.317-3.5132c-1.6074,1.5181-2.3322,2.4699-4.6405,3.2736l1.7527-5.6636-6.7124,4.8972,1.3073-5.2035c-2.3515,1.918-3.4591,3.7208-4.9278,5.8197l-.507-1.199c-.145-.3429-2.38.9482-2.3511.3296l.0846-1.8134-3.3057,2.8586-.2515-2.3323c-.0619-.1321-.2947-.6303-.2254-.4819l-4.0365,4.1845c-.2651-1.805.0007-2.6008.3397-4.1802-3.3806.4746-3.1154,3.1801-4.5075,5.3052-.1707.2606-2.6682-1.0408-2.6887-1.5435l-.1022-2.5104-3.8473,3.2319-.5276-3.1035-3.3076,3.6557-3.9183-1.1944.9545-2.6938,3.077-1.245-1.0169-.6033c-.2497-.1481.0661-.9.0263-1.2007l-.4853-3.6684,4.3956-.9849-.5564-.4526c-2.8412-2.3111,11.7569.1072,11.5482-.0437l-7.1356-3.358c4.2093-1.7042,8.1253-.1286,11.7048,2.2162l.9319-.9383c-3.5853-3.7917-6.245-1.7517-8.7577-4.2153,2.032-2.5451,8.4628.718,10.2,2.0394,1.3214,1.0051,2.3134,1.9736,3.9435,2.4678-.8923-3.9642-4.2833-4.6715-7.4977-5.5354-.257-.6491.8193-1.2222,1.6958-1.3741l1.9184-.3325c.3784-.0656-.305-1.2607-.4498-2.0952,2.1962.1632,4.9982.7013,7.02.9756,1.1949.1621,3.2781-.8096,4.5421.1176.2848.2089,1.4871.4024,1.5528.0975l.3535-1.6416c1.4388-.0726,3.0997.8961,4.7723,1.8536l.1865-1.9574c.0342-.3593,1.2606-.3126,1.606-.197,4.5186,1.5115,7.4426,5.2016,9.7108,9.5433,4.4925-1.7909-4.2626-7.8109-5.4693-8.754-.1562-.1667-.4306-.7108-.5434-.9172-.7948-1.4548,7.4886.9601,11.5419,9.8149.1428.312.7842.7926,1.0535.9756.3241.2201,3.0629-1.3571-3.5706-6.8964-.8963-.7485-1.4509-1.7853-.9044-2.8528l4.0193,3.778c3.8571,3.6255,4.6504,8.6426,6.7803,4.9454l-6.6646-8.0304c-.313-.3771-1.2272-1.4281-.9387-1.7613l1.7674-2.0417c-.4312-.1266-1.8064-.3978-2.7809-.5177l-.8823-.1086c-.2332-.0287-.6877-.3445-.5352-.5337l.9316-1.1563-6.9076-.8701,2.2942-2.0498-5.5315-.3014c-.3191-.0174-1.3648-.1685-1.2419-.4525.1229-.2842.552-.898.803-1.0732l.8377-.5844c.17-.1186.0578-.7575-.1481-.7381-3.7602.3544-3.3877,1.1801-5.9777.3273l3.1578-2.7363c-3.8915-1.6578-5.4616.8517-8.2777.1353-1.2299-.3129,1.7512-2.0656,1.4353-2.2959-.2119-.1545-1.0369-.7919-1.2986-.7798l-6.5795.3049,1.4436-2.2236c-.8353-1.8882-8.083,2.1419-7.3917-.1774l.66-2.2141c.6877-2.307-5.5928,1.3328-6.5569,1.3719l.5578-2.7985-3.9747,1.0292c-.2963.0767-1.1816.1265-1.4797.117-1.0053-.0318,1.0458-2.7383.6313-3.0259l-1.8125-1.2572,4.3529-2.0563c.5708-.2696,1.6299-1.2324,2.2325-1.2093.4764.0183,1.224.1483,1.323-.0281l.6996-1.2467c3.6362,1.0422,3.353,4.4177,5.4176,4.3807.2959-.0053,1.0549-.4113.9411-.6846-.9531-2.2892-2.211-1.0959-3.8842-3.5807,2.7166-.2183,4.5471,1.1545,6.0853,2.8545l3.3875,3.7439c2.1336-5.1167-6.3879-5.2156-6.4822-8.0845,2.0594.2525,3.2683,1.0433,5.0841,1.9771l-.0672-1.8028c-.0166-.4469,5.9245,1.5567,5.7706,1.4997,4.7816,1.7694,7.0826,5.7523,8.9215,10.3242,3.1285-3.1777-3.0165-7.9058-4.2783-10.2397,3.2332.7252,5.3814,3.3504,6.6782,6.1095l2.7933,5.9429c.8385-1.7063.4638-3.9998-.7112-5.4002l-4.0895-4.8737c3.7333-1.9694,9.1336,9.9727,9.9816,13.2591,3.1536-3.4985-3.6982-8.2186-2.8194-10.2291,4.3705,2.8109,5.3464,7.7009,7.4438,12.4242,3.2893-2.121-2.7166-6.8804-1.0457-8.6764,3.806,2.7627,6.0074,12.9239,7.7111,12.4319,2.6958-.7784-5.1596-7.4653-2.6406-11.2194l2.6332,4.2787c.0943.1532.9573.5909.9484.4112l-.042-.8503c.113-.7532.3423-1.7661.5321-2.3334l2.1218,3.5142,1.5771,4.0611c.5818-1.5877.3611-2.2844.2861-3.9748l2.3595.4903c.1785.0371.7523-.4391.6254-.5631-.1268-.1239-.6264-.6255-.7996-.7133l-3.7509-1.9019c1.1689-1.9707,4.1397,1.0404,5.0519.1798.2013-.1899.4514-.7845.2106-.9198-5.4277-3.05.7746-1.5179-5.3294-3.0288l.5014-1.7699c.1251-.4416-1.0406-.8385-1.7108-1.1181-.1128-.1663-.5095-.7547-.4623-.6848l2.0832-1.4291-4.6044-3.3102,4.9256-.5169-5.1297-2.5247c-.3861-.1901-1.5316-1.0964-1.1939-1.2391l1.6064-.6788c.4619-.1952,1.2561-.4566,1.1927-.7825s-.5259-1.0813-.8434-1.188l-2.9732-.9998c-.2015-.0677-.6602-.8314-.4582-.9011,2.7457-.9473,3.1669.8727,5.2103-.8161l-4.7041-1.8166c-.2983-.1152-.8787-.7026-1.0378-.9276-.2128-.301.7065-.8552,1.1504-.9285l3.2256-.5324-4.8855-2.9823c-.3909-.2386-1.1488-1.5484-.7717-1.7391l1.8261-.9235c-1.7705-.8237-3.5815-1.7995-4.3294-3.0848.7709-.7664,1.596-1.5425,1.2487-1.9035l-1.8117-1.8827,2.0782-.4-1.6353-2.4437.0876-.5662c.8717.2973,1.943.9348,2.0943.5195l.7023-1.9272c.9148-.0794,2.0009-.225,2.9303-.4844l1.1707.9596c.3294.27,1.5025-.2318,1.8514-.2853l1.1294,4.9071,2.02-3.4871.6419,7.5183,1.8681-2.7925c1.3552,1.4999,1.2821,3.9537,1.0415,6.4962l1.6843-.2857c.4095-.0695.8262,1.5746.8343,1.9973.0258,1.3436.8912,2.3396,1.7023,3.2995,2.6235,3.1047,1.9677,7.6176.4019,11.0956-.3161.7022-.467,2.1178-.3912,2.5647,5.2006-.5907,1.8231-8.2497,3.1802-12.1172,1.9242,2.167,1.2316,4.5527,1.5684,7.3333l1.6633-2.6063.2314,3.573c.0199.3067.0018,1.2703.2551,1.2942l1.1044.104.2801,5.3315c4.3162-1.397-.6086,6.6794,1.1998,9.639l1.9472-3.628,4.1895,3.1475,1.7859-4.7442,2.5566.9262,2.2659-7.3428c2.1215-.2476,2.3409-1.4271,3.3291-3.4694l1.1234,3.6634c5.5437,3.1024-.2078-4.1086,2.8284-6.6121l1.1935,2.8531.3153-5.4738c.0215-.3727.364-1.295.5024-1.5963.1726-.3758,1.4165-.4306,1.4959-.0437.3365,1.6033.9084,4.3589,1.9752,5.4903l-.4282-7.7019c-.0366-.6578.7147-1.7827,1.5129-2.7607l1.4413,5.8701.5439-5.482c.0238-.24.7513-.7449.9781-.8278,1.2676-.4634-.4884,5.0292,2.5427,5.6495-.4333-1.7141-1.5181-9.5796,1.3944-9.1095,2.2774.3675-.2743,4.4234,1.1433,5.1383l1.9564-5.8299c1.1755,1.1884,1.2536,1.5732,1.9947,3.1055l1.8678-4.8165,2.4918,1.7568c.749-.6206,2.5852-2.3651,3.6088-2.2502,1.3293.4225,2.522.274,3.8229-.4604l1.3769.8923c.3357.2175,1.3076-.205,1.7656-.3782l1.4955-.5653c.381-.144.9334.8549,1.3019,1.0289l4.1015,1.9366c.2256.1065.7687.4791.9195.5875.1506.1083-.3294.5437-.7385,1.0806l3.681,2.0928-8.2408.9819-.1946,1.1675c-.0377.2265-.5963.3276-1.0028.4082l-3.4457.6834c-.4939.0979.5291,1.3478,1.0215,1.8879-1.8873.429-4.0203.5449-6.2062.5273l.2703,1.4607c.0606.3277-1.0127.6147-1.3851.6778l-6.1424,1.0417,2.5678,2.1092-2.9168.7404,1.012,1.0227c.1628.1645-.7526.8545-.9947.9001l-5.2934.9978c-.1492.0281-.8236.3032-.8371.3012-.0154-.0022.0902.3957.142.5945l3.498,1.4894-5.4176,2.2036.7525,1.5118c.1761.3539-1.0727.9058-1.4797,1.0216l-4.8476,1.3792,5.4556,1.4753c-2.6817,1.0609-4.7037,1.1368-6.536,3.1214,2.0853.8682,4.2897-.3181,6.1655-1.3402l1.0419,1.4481c1.8021-2.1048,3.1209-4.2122,6.262-4.179-4.1991,3.3611-4.2924,13.0638-2.5621,10.5957.1365-.1947.5616-.7558.5917-.994l.5072-4.0103c1.2174-2.4669,3.6948-4.9029,6.6759-5.0079.6632,2.1047-3.986,2.1974-4.9539,4.2675-.5033,1.0763-.0744,3.3569.653,4.0898,3.3307-4.7813,4.1797-7.6599,10.2627-9.3524-.8455,3.4704-4.161,4.0226-4.9292,7.612l8.5144-7.2495c1.0443-.8892,1.8915-1.4864,3.7148-1.2141l-3.0957,3.4979,9.4557-3.6845c-.4276,2.443-2.3559,1.8584-3.7411,3.9977l8.5805-1.9528c-2.4767,2.7316-5.4257,3.1466-8.2829,5.5422,2.9047.0438,5.2424-1.3523,7.9406-2.7037,4.3594-2.1835,6.0579-.8555,5.1917-.434l-1.1272.5484c-.3002.3546-.6395.755-.638.7533l5.6887-.3305,1.9376,2.5047-3.5588,2.1285c.908,1.0174,6.3752-.801,6.4641.7716l.0908,1.6055c.024.4239,1.1897.6113,1.9395.8055l1.4566,5.7538c-.849.6121-2.429,1.4158-3.6225,1.9329l-2.5663-2.6333-1.4051.9129c-.984.6393-2.5245-3.6779-3.8678-2.92l.046,2.001c.0281,1.2235-3.8702-2.0573-3.9706-.9887l-.1556,1.6556c-.032.3405-1.4189.257-1.6813.0431l-3.6555-3.7318.2929,3.2589c-1.4542,1.9636-2.9186-2.9945-4.8574-2.925-.0819,1.05.0519,2.9649-.6332,2.997-1.0545.0494-1.9396-1.2402-2.882-2.4752l-.6668.7774c.7627,5.7348-3.4405-1.897-5.1077-1.8711l1.0949,3.0759c-1.0442-.1193-2.2791-.6691-3.3327-1.3955l-.8803-.6069c-.1841-.1269-.9726.1191-.894.3286l.5543,1.4786c.1526.4071.3694,1.4744.3179,1.8882l-4.1227-1.5924,1.8028,3.0471c-2.0601,2.6246-6.8224-4.8649-5.8547-1.4152l.4776,1.7027-3.7165-.911.9223,2.9351c-2.4419-.052-3.8765-.2903-6.4877-.7527l1.3922,2.9396-5.5094-.5438c1.2495,2.1708,1.762,2.8049,2.0521,4.7706l-3.1816-1.3851.7701,1.5452c.1433.2876-.3772.9642-.6538,1.485-.293.5516.8585,1.6995,1.4864,1.8658,2.3884.6325,2.8176-2.9479,6.8508-.7894l4.9422-1.9922,1.0411,1.5015c.4146.598,3.5653-1.4403,3.3925-.5357l-.4095,2.1435,6.7589-1.266-.9545,2.1087c3.183-.8659,5.0456-2.4347,8.253-1.5566l-3.1047,2.5802,10.3646-.8577-2.0926,1.1776c-3.4444,1.9383,3.1064-.1935,4.106,2.8337,1.9683-.3821,3.9085-1.5674,6.2534-.5047l-2.6654,3.3338,6.5868-.8452c-.2565,1.5253-.8474,2.0924-2.0364,3.5213l6.4175-.5808c.0358,1.2485-1.0221,2.1473-2.2306,3.2384l6.2914-.9373c.5151-.0767,2.004.2884,2.2201.6946.2164.4068.0065,1.1849-.1007,2.0369l3.6976.89c-.5138.7052-1.2776,1.5131-1.7447,1.7599l-1.1547.6101c-.3015.1593.866.867,1.2139.8403l4.3478-.3341-.2306,2.2845c-.0446.4418,1.2673.6977,1.9901.9635l-.1025,2.3685c2.007,1.1259,3.5636,2.452,5.3485,4.4482l-2.6845,1.3836c.5881,1.0945,1.2987,2.3335.9488,2.8758-.2082.3227-1.5679.2555-1.7265.6045l-.8666,1.9072c-.2801.6165-2.3173.1616-2.6283-.4495l-1.4803-2.9083-1.5323,3.465-1.8929-6.4047c-.3793-.0999-1.2784-.337-.8096-.2136l-1.1,3.2862-3.4945-6.1545-.0507,5.0893c-.0022.2221-.8823.9698-.9873.7766-2.0686-3.8054-2.016-5.2942-3.962-7.4927l-1.1409,3.861c-2.853-2.4892-1.1038-4.7405-4.2306-7.1043l-.3256,3.948c-.4172,5.059-2.5861-4.1096-3.5757-4.1516l-.5744,3.9751c-2.0606-.9639-1.4734-3.3396-3.4917-6.0564l-1.6698,3.0643-3.1495-5.2838-.7695,5.0378c-1.3426-1.4516-1.7423-2.4965-2.727-4.5666l-.9541,2.155-2.2895-2.5085-1.2473,4.299c-1.6265-2.7909-2.3896-4.3448-4.2535-6.2507l.0786,5.3477c-1.9432-2.3585-2.5694-4.205-5.0308-6.2782l1.4745,5.1787-5.5121-4.4666c-.7836,1.7846.3131,4.7932,2.425,5.3104l4.2518,1.0413-2.5576,1.606,5.7917,1.0064-1.0918,1.5334c-.1995.2802,1.1368.5024,1.4719.5841l3.849.9389-2.1241,2.3258,4.6962,1.3435c.306.0875,1.3966.6678,1.2616.9273l-.9711,1.866,4.7198,1.0713c-.9534,1.1624-2.1225,1.8285-3.5351,2.4755l6.0097.9448-.1764,3.7476,4.3156,1.0274-4.4884,1.8093,6.9958,2.4169c.2586.0894,1.1988.8043.9908.961l-1.2575.947c-.3388.2551-1.2908.5986-1.1695.9051.1216.3072.592,1.1187.8905,1.3444l4.5232,3.4203-2.4627.9449,4.4118,3.3576-1.9698,1.2396c-.427.2687-.0447,1.7956.2202,2.2499l2.1248,3.6426-2.9604-.86,2.4275,5.8544c.0175.2346.1733,1.1309.1987,1.3234.0382.2889-.7481.5825-1.0674.5768l-2.6619-2.1901-.4594,4.4389c-.2917.2063-.9957.7052-.4554.3235l-3.1583-2.0135c-.2437-.1553-.919-1.1312-1.0603-.909l-.9423,1.4818c-.3547-1.4709-1.585-2.9078-3.1049-3.7322-1.3951-1.9172,1.3029-4.8977-1.3945-7.0983l-.9834,1.9755c-.17.3415-1.3131-.7411-1.3044-1.1775l.1176-5.9322-2.4455,2.2161-1.3063-7.3851-3.4563,7.5733c-1.9779-3.9042,1.6797-8.5916-1.0208-12.5436-.587,1.7591-.9239,3.0024-1.6605,4.0291-2.276-1.7689-1.0597-3.7367-2.0073-6.0355l-1.489,4.04c-2.2371-2.2534-.2114-5.1348-2.8021-9.0233l-1.3472,3.1805c-1.0527-2.99-1.5991-5.3462-2.2068-8.0437-.685,1.3637-1.3783,2.577-1.9637,3.3505-1.2103-2.1089-1.2849-2.6522-2.7164-3.5361l-.0127,4.7902c1.7077,1.6821,3.2902,2.6211,3.0484,5.2956l-4.9188-2.9547,3.2875,5.1159-2.9154.4057,3.9454,3.5607-1.798.9746c2.1287,1.931,3.875,4.1362,3.5074,7.3164l-6.7394-6.6524c-.1525-.1505-.8788-.4998-1.05-.5554-.1711-.0556-.6133.1634-.56.3358.8505,2.749,6.585,3.7691,6.4482,9.3572-1.9908-1.3774-3.1737-3.7882-5.4776-4.9827.1831,3.0285,8.0197,6.9069,6.3565,12.1731l-3.2761-2.8856,2.0315,4.4107c.504,1.0943.6817,2.5157.1225,3.6697-1.664-3.3352-3.1329-5.8086-5.6677-8.5371-2.9273,3.6293,6.835,5.3067,5.1691,12.2691l-4.9658-6.9612c-3.2267,2.8282,6.8746,6.5102,5.4063,13.7588-1.9378.3564-3.1678-6.0621-5.9064-8.6878-2.4873,1.5011,5.9461,6.5429,3.4537,11.5099l-3.9465-6.4157c-1.0557,1.1302-.7287,2.1896.0147,3.2468.3554.5053,5.3124,7.6378,3.348,7.9942-2.4786.4497-1.5914-1.4683-5.1638-1.6977l.5718,2.9488c-.7987.3462-1.7237.7852-1.9976,1.1893l-.9273,1.3682c-.2281.3366-.9445-.7566-1.0087-1.1644l-.2359-1.5006c-.0605-.3846-1.0388-.461-1.8698-.809.1714-.8594.7817-2.1481,1.5553-3.5642l-1.5628-1.1434,2.2399-4.0709c.0213-.6994-.0547-1.1022-.3482-.4775l-4.6935,2.9819c.0013-4.8728,4.7585-5.3015,5.4676-9.1607l-5.612,3.1194c.4312-4.4727,5.6105-6.6326,5.6858-9.4543l-4.4079,3.1272c.7701-2.4793,1.5401-3.8717,2.7501-6.1247l-4.9467,2.5599c.7488-4.0383,4.6436-4.8329,5.0837-9.1759l-4.0321,2.9111c-.2571-.1098-.8999-.7177-.8356-1.0908.3648-2.117,3.0588-2.6247,3.4952-5.2351l-3.6277,1.5296,4.6178-8.491c.0886-.163-.1943-1.2298-.1989-.9829l-4.5933,4.7513c-.3648-.0397-.6529-.0328-.6454-.1256.0075-.0925-.0199-.7292-.0267-.9253,1.1701-2.2342,2.7885-3.7598,3.1571-6.2214l-4.2913,3.4331c.5486-2.1489,1.3296-3.9653,2.249-6.0703l.474-1.0853c.1032-.2364-1.2244-.1802-1.4061-.004l-4.2194,4.0902c-1.5444-3.4442,5.718-7.1026,5.1079-10.9718l-4.0119,3.8731-3.7522-1.4835c-1.1027-1.569-1.5497-2.7329-3.7221-3.3801l1.9468,5.5243-1.6533,1.0425,3.5896,4.5582-1.6055,1.4485c-.3066.2767-.0118,1.2787-.0035,1.6138l-2.1624.7219c1.5951,2.0057,2.3704,3.0851,2.7612,5.3465l-3.0114-.5664,1.2429,3.2957-2.2472,1.1526,2.122,3.6019-1.6238.6845c-.3136.1322.529,1.1054.71,1.4425l1.4493,2.7003-2.97.6785,3.794,6.7647-3.849-.8601,3.2616,4.5402-2.9443.8028,2.4078,3.9706c.194.3199.3792,1.3629.3634,1.7309-.0226.5253-2.8236-.7448-2.482.1155l.4139,1.0422c.1702.4285.8912,1.654.5137,1.8822l-2.0096,1.2147,2.5444,3.5118-2.4496.8796c1.1587,1.2423,2.3917,2.9152,2.0188,4.236l-1.1942-.5506c-.2065-.0952-.7469-.2433-.6992-.03l.2965,1.3247c1.1554,5.1617-2.1439.3473-.9095,10.1249,8.4003.455,16.1877,2.0281,23.5016,5.752.5767.1509,1.2515.3698.7392.3342-8.2347-1.121-15.9341-1.2097-23.8535,1.06-1.1197,1.5856-.3651,4.2125.8005,5.9116l18.5168,26.994,38.2077-9.8846-24.2819,29.5114,21.807,31.9342c1.469-1.5632,2.9183-3.2237,4.0127-5.1041l9.3123-16.0003-.4647,13.9105,64.1405-108.6311-1.5675-2.5074c-.3707-.593-.3475-2.2829-.0248-2.8716,1.5178-2.7693,9.3697-1.5205,11.8311,3.8745.2875.6301.1849,2.2858-.1292,2.8078-1.3636,2.2664-5.0484.2813-6.7008,1.5354ZM189.6829,24.9946l-.8224-6.442-1.3468,7.9303c.6084.5487,2.2821-.6037,2.1692-1.4883ZM194.896,34.9374l.0598-6.3282-2.4872,8.0454c.5981.1582,1.1665.2916,1.4255.08s.9978-1.3615,1.0019-1.7971ZM180.25,113.7424c.2901-.7017.4458-.9233.314-.9198l-.9454.0249c-1.9308.0509-5.1508,1.1862-5.9326,3.7173l6.564-2.8224ZM177.0085,123.3909c-2.2578-2.0108-4.4621.2388-5.3927,2.1878l5.3927-2.1878ZM173.9378,133.4166c.202-.0998.3051-1.5618.1837-1.4576-2.8238.6368-5.0692,2.0558-6.3823,4.5198l6.1986-3.0623ZM92.1238,213.6998l-28.4035-49.8533c3.7657,16.2443,17.7508,38.8983,28.4035,49.8533ZM330.8619,185.0597c2.9969-6.9229,6.7576-12.8288,7.939-20.3523l-27.2454,47.9515c8.3345-8.2706,13.6134-17.8757,19.3064-27.5992ZM163.2831,240.0477l35.524-9.8674.5017-38.1911c-11.0261,3.5101-20.0922,10.2357-26.9042,19.3316-5.4954,8.6655-8.9625,18.284-9.1215,28.7269ZM34.912,256.9133c4.4401-6.1498,9.5047-11.7928,14.9592-17.305l14.6564-14.8112c2.9513-2.9825,5.3659-6.116,7.5694-9.7673-7.0502-8.8005-10.418-11.4119-13.9188-22.6021-2.6758,3.3004-4.7073,6.3729-7.4795,9.0314l-11.7272,11.2462c-6.9805,6.6942-13.025,13.7161-17.922,22.2912,3.6652,8.9893,9.9689,12.5818,13.8624,21.9169ZM368.033,256.6949c2.0083-3.9791,3.9453-7.1348,6.4299-10.2075,3.1075-3.5383,5.5706-7.2371,7.4473-11.5679-4.7055-8.0359-10.1928-14.8983-16.9011-21.2147-7.2243-6.8023-14.5528-13.0779-20.1267-21.4458-2.1116,7.3375-5.8223,13.157-10.5674,18.5687l-3.4682,3.9554c1.994,3.5227,4.1114,6.4828,6.9042,9.3056l16.1364,16.3097c5.0573,5.1117,9.5629,10.402,14.1457,16.2964ZM197.7052,289.9058l.6796-36.4173-35.0864-13.3132c-.6367,13.7656,4.6632,26.5226,13.8405,36.6339,5.5946,6.0487,12.4196,10.5564,20.5663,13.0966ZM232.8695,291.9698c10.7494-2.155,19.7983-7.75,26.5751-16.8679l-37.1563-13.2581-16.9623,19.4553.2154,10.8133c9.3303,1.7147,17.9697,1.702,27.328-.1427Z"/>
          </g>
        </g>
        <g>
          <path class="cls-1" d="M240.8007,365.5368c-26.4835-2.9596-52.2552-2.893-78.4096-.0336-11.9125,1.4103-23.1921,3.5512-34.8822,6.9937l-12.3149-30.0932c26.2077-8.1007,53.1669-12.0795,80.5665-12.2581l12.0165-.0139c27.2623.2539,53.9463,4.1551,80.2702,12.2483l-12.4291,30.1966c-11.6484-3.4257-22.6517-5.6274-34.8174-7.0399ZM197.2429,352.3339l5.7775-2.1038c.6143-.2237,2.3835.0483,2.9279.3946,1.3998.8904-.4704,5.877,3.4446,5.9383,2.3775-2.9336,4.5612-5.7479,7.2945-7.6781,1.2611,4.0753,5.0953,3.9561,8.1361,3.3012,3.4364-.7401,6.1468-2.1496,6.5138-6.255.1456-1.6291-.7713-4.4543-.9727-6.1093-.1198-.9846.1125-3.9169-1.7567-3.1686-2.2128,1.8854,1.5696,6.6046.4143,9.8224-.7102,1.9781-3.3089,2.6575-5.0654,3.2462-5.2051,1.7445-6.1881-3.1479-7.6671-3.4348-2.9438-.5711-5.0871,9.169-8.2956,6.7749-.7674-.5726-.9852-2.5715-.1913-2.8056l1.9424-.5725c.3335-.0983.0798-1.1941-.29-1.3244l-6.8674-2.4191c1.4103-2.9234,7.3394,1.5721,5.6807-.8844-1.3423-1.9879-3.4978-4.253-1.2172-7.1728l-3.1711-3.2311c-2.0039,3.4717,1.1547,6.4321-.1555,7.979-1.5413,1.8197-6.0796,1.6072-7.0499,5.3671l2.9651,1.274c-2.6245.7452-5.4751.6995-8.5549.466l-2.8358-3.4762-2.4842-11.0697c-4.9736-.1073.9199,11.9341-.2147,16.5267-3.1806-2.8481-3.6044-7.7782-6.5012-10.3389-.2755-.2435-1.6529-.2379-1.6194.1263.2737,2.9754,2.5101,3.8026,2.8303,7.2331-1.0139,2.2645-4.275,4.0382-6.5879,2.8086-.9009-.492-.0776-3.0113-.0406-4.7007-1.5727.9128-2.4878,3.2662-2.3695,5.5264.0499.9539,1.6041,2.346,2.4881,2.7038.7955.322,2.8133.0852,3.5252-.403l4.1805-2.8672,1.608,1.9239c2.848,1.4445,5.3836-.2434,7.6972-1.7682,1.8032.5683,4.2131,1.1971,6.4819.3709ZM210.7047,348.2516c3.0422-1.8272,1.83-4.2586,1.5114-6.4621-.2683-1.8557.6766-4.2688-1.8902-5.4436-.7587-.3472-1.8859.9315-1.6787,1.7727.8651,3.5124,1.3795,6.4716,2.0574,10.133ZM197.8856,338.0154c2.8563-3.8505-12.6618,4.054-9.0383,3.7622l9.0383-3.7622ZM168.2315,343.0038c.6967.099,2.4895-.13,3.1788-.5799s1.499-2.593.7893-3.0221c-.7454-.4506-2.5922-1.0486-3.0891-.5619l-1.6262,1.593c.8818.6071,1.1909.6716,1.1303.931l-.3831,1.6398ZM145.3713,346.202l8.2487-4.4499c.295-.1591.4906-1.7823.152-1.7412-.2555.031-1.066.0861-1.3182.2349l-8.1945,4.8348c-.2473.1459-.3085,1.5386-.0386,1.4731.1799-.0437.7489-.135,1.1507-.3517ZM265.4049,342.8046c-1.2653,3.6788.3945,10.7875-2.4623,11.3937-3.965.8414-8.0845.6614-11.6036-.6876-6.1606-2.3615-2.5585-7.0204-5.875-12.6137-.2651-.4471-1.8518-.8542-2.136-.4323-1.2462,1.8503,3.0607,5.746,1.1144,10.027-1.2165,2.6758-4.9871,4.053-7.8188,3.5176-2.3202-.4387,2.4714-3.6517,2.7998-4.8757.7704-2.8718-.1556-6.3565-2.5879-8.2256-.6314-.4852-2.2925-.6117-2.817-.1319-1.3232,1.2107-.5735,4.9908.2352,6.1408.4373.6219,2.2521.5851,3.4465.7133-3.9437,4.9482-7.1713,4.4387-13.0733,6.5986,2.3558,1.6423,6.4285,1.5671,8.8068-.2196.1749-.1314.6574-.0431.6884.1736s-.0342,1.3637.1419,1.4939c1.9271,1.4239,6.749,1.5403,8.6838-1.3178,1.0455-1.5444,3.2579-.7988,4.3251.1387,3.1877,2.8001,10.9997,4.1126,14.6183,3.2029,3.4487-.8669,4.9475-4.5374,5.0208-7.7898l1.9393-1.4316c-.6027-2.0151-.3216-4.5173-3.4465-5.6745ZM199.5626,340.5668l-8.2878,3.8751.6149,1.315,8.2878-3.8751-.6149-1.315ZM216.3596,343.266l3.5129-.2262c.8509-.0548.4891-2.2136-.2593-2.1168-.5871.0759-1.4614.2643-2.2314.4296l-1.7622.3783c-.4341.0932.294,1.5638.74,1.5351ZM259.1015,345.1429l2.0308-.0519c.3788-.0097.4816-1.1594.2948-1.4891-.1866-.3295-.9721-.9919-1.3997-1.0656-1.5343-.2643-2.613,1.9826-3.2347,3.3305l-1.9666-5.0053c-2.4095,1.0508-2.304,3.5931-1.749,4.6119.1446.2655,1.3889.4222,1.4554.7173l.2858,1.2678,1.1042,4.753c1.4783-2.6868,2.3007-4.9309,3.1791-7.0686ZM133.9141,360.9521c5.1402.1847,4.0831-10.3193,7.019-8.5608,1.7267,1.0342,3.1364,3.0199,4.972,3.5363,2.9955.8426,7.2609.2257,9.6924-1.5094,1.5464-1.1035,2.1103-1.9729,3.9756-1.0759,2.2542,1.0839,4.1899-.2046,5.3645-2.1715,1.0922.4971,3.2008,1.1287,3.9233.5555,1.8689-1.4828,1.1388-4.5204-.6723-5.3923l-.4105,2.4289c-.0815.4821-1.6892.5082-1.9574.0613l-3.8216-6.3698c-2.2096,2.5561,2.6537,7.1387.0701,8.1603-2.4605.9729-2.7021-2.4186-4.9564-2.3062-2.1004,3.4995-6.7938,6.3597-10.5015,4.2634l-5.0873-2.8764c-.8485-.4797-3.2093-.5492-3.908.175l-1.8228,6.6931c-.1201.4411-.8062,1.317-1.199,1.4196-1.3809.3604-3.5277-2.7972-5.5082-3.1185.1465,2.3686,2.2724,5.9958,4.828,6.0876ZM140.1291,345.0284c-.0961-.2725-.7288-.8309-.9933-.8333l-3.4422.3988c-.5598.3852.0962,2.2144.8133,2.1331,1.1714-.1327,3.7751-1.2652,3.6222-1.6987ZM128.9212,348.673c.7718-.0063,2.3581-.2802,3.0974-.6983.6614-.3741,1.3352-2.1799.844-2.7574-.5955-.7002-2.5216-1.1699-3.2075-.8016-.5745.3085-1.1613,1.2034-1.4419,1.8603.8692.1392,1.3669.0337,1.2924.301l-.5844,2.096ZM275.5431,353.7956c.3106-.9026,1.1073-1.9721.7583-3.1528-.6622-2.2405-.8677-4.5728-3.409-5.1569-.2288,3.9511-.1012,7.5557-.888,11.0199-.4393,1.9342-1.8086,3.7451-1.5031,5.778,4.046-1.1619,3.9841-5.4141,5.0418-8.4882ZM169.6254,354.0362l-3.2139-.1536c-.7651-.0366-.91,1.6117-.0517,1.9811.5402.2325,1.417.0382,2.2838-.1275l1.7952-.3432c.3319-.0635-.4081-1.3374-.8133-1.3568ZM203.5261,355.3213l-1.1028-1.6914c-.1958-.3003-1.5812.1562-1.5424.5181l.1471,1.3715.7268,1.9189c.1605.4238,1.957.6572,2.1997.2746.289-.4557-.1075-1.8995-.4285-2.3917ZM265.8968,362.3321c.5375.1491,1.072-1.6632.9298-2.2062s-1.1486-1.2471-1.8445-1.3701c-.5533-.0978-1.2297,1.572-.9421,2.0559s1.2256,1.3453,1.8569,1.5203Z"/>
          <path class="cls-1" d="M213.0405,412.6514c8.7326,11.6911,18.8867,5.8866,18.8577,10.9905l-.0325,5.7182c-.0035.6237-1.0921,1.7498-1.8237,1.7138-16.4669-.8107-22.199,5.7892-38.8928,1.9037-6.495-1.5117-12.6052-2.1826-19.4712-1.9837-.7601-2.5603-.8064-6.0769-.4223-8.5854.3529-2.3047,7.6201-.2583,14.1767-5.3045,4.3842-3.3742,7.186-7.8071,9.028-13.1454.8124-2.3545,2.7011-6.5143,1.2689-9.0615l-14.3002-25.4346,9.2091-.1044,5.2744,8.6941.4594-8.6108,10.1325-.0489.5938,8.5814,5.2392-8.613,9.2075.1328-14.4851,25.3952c-.9245,5.6055,2.766,13.4585,5.9808,17.7625Z"/>
          <path class="cls-1" d="M312.5792,396.4771c-15.3882-6.7684-30.1658-12.0079-46.3508-16.7744l14.89-4.2028,9.3075-23.9099c11.8969,3.7228,22.9521,8.0103,33.9508,13.8767l-22.0828,6.887,10.2853,24.1234Z"/>
          <path class="cls-1" d="M137.2345,379.6537c-16.1282,4.6034-30.8797,9.8838-46.6199,16.7949l10.3128-24.0546-21.9721-6.9225c11.1692-5.9899,22.2106-10.2845,33.7922-13.8346l9.2158,23.8584,15.2713,4.1583Z"/>
        </g>
      </g>
    </g>
  </g>
</svg>